<svg width="80" height="48" viewBox="0 0 80 48" fill="none" xmlns="http://www.w3.org/2000/svg">
<rect width="80" height="48" rx="24" fill="#FFD44A"/>
<path d="M29 24.0327C29 23.5265 29.3762 23.1081 29.8643 23.0418L30 23.0327H50C50.5523 23.0327 51 23.4804 51 24.0327C51 24.539 50.6238 24.9574 50.1357 25.0236L50 25.0327H30C29.4477 25.0327 29 24.585 29 24.0327Z" fill="#242424"/>
<path d="M41.228 16.7087C40.8366 16.319 40.8353 15.6859 41.225 15.2945C41.5792 14.9387 42.1347 14.9053 42.5268 15.1949L42.6392 15.2915L50.7058 23.3235C51.0627 23.6788 51.0952 24.2363 50.8032 24.6284L50.7059 24.7407L42.6392 32.774C42.2479 33.1637 41.6147 33.1624 41.225 32.7711C40.8707 32.4153 40.8396 31.8597 41.1309 31.4688L41.228 31.3569L48.5827 24.0317L41.228 16.7087Z" fill="#242424"/>
</svg>
