<svg width="923" height="1190" viewBox="0 0 923 1190" fill="none" xmlns="http://www.w3.org/2000/svg">
<line x1="1.00006" y1="4.24972e-08" x2="1.00001" y2="1190" stroke="#161616" stroke-width="2"/>
<line x1="75" y1="4.26356e-08" x2="75" y2="1190" stroke="#161616" stroke-width="2"/>
<line x1="152" y1="4.26356e-08" x2="152" y2="1190" stroke="#161616" stroke-width="2"/>
<line x1="229" y1="4.26356e-08" x2="229" y2="1190" stroke="#161616" stroke-width="2"/>
<line x1="306" y1="4.26356e-08" x2="306" y2="1190" stroke="#161616" stroke-width="2"/>
<line x1="383" y1="4.26356e-08" x2="383" y2="1190" stroke="#161616" stroke-width="2"/>
<line x1="460" y1="4.26356e-08" x2="460" y2="1190" stroke="#161616" stroke-width="2"/>
<line x1="537" y1="4.26356e-08" x2="537" y2="1190" stroke="#161616" stroke-width="2"/>
<line x1="614" y1="4.26356e-08" x2="614" y2="1190" stroke="#161616" stroke-width="2"/>
<line x1="691" y1="4.38538e-08" x2="691" y2="1190" stroke="#161616" stroke-width="2"/>
<line x1="768" y1="4.26356e-08" x2="768" y2="1190" stroke="#161616" stroke-width="2"/>
<line x1="845" y1="4.38538e-08" x2="845" y2="1190" stroke="#161616" stroke-width="2"/>
<line x1="922" y1="4.38538e-08" x2="922" y2="1190" stroke="#161616" stroke-width="2"/>
</svg>
